<svg width="163" height="48" viewBox="0 0 163 48" fill="none" xmlns="http://www.w3.org/2000/svg">
<path d="M77.212 18.84V13.8H58.024V39H63.568V29.244H75.592V24.204H63.568V18.84H77.212ZM86.941 17.58V12.72H81.181V17.58H86.941ZM86.797 39V19.704H81.325V39H86.797ZM109.612 39V26.508C109.612 24.276 109.036 22.524 107.884 21.252C106.756 19.98 105.148 19.344 103.06 19.344C102.364 19.344 101.74 19.428 101.188 19.596C100.636 19.764 100.132 19.992 99.6763 20.28C99.2203 20.568 98.8003 20.904 98.4163 21.288C98.0563 21.648 97.7203 22.032 97.4083 22.44V19.704H91.9363V39H97.4083V28.236C97.4083 26.94 97.7083 25.968 98.3083 25.32C98.9323 24.648 99.7723 24.312 100.828 24.312C101.884 24.312 102.7 24.648 103.276 25.32C103.852 25.968 104.14 26.94 104.14 28.236V39H109.612ZM133.77 39V12.72H128.298V22.224C127.65 21.456 126.846 20.784 125.886 20.208C124.95 19.632 123.75 19.344 122.286 19.344C121.134 19.344 120.03 19.56 118.974 19.992C117.918 20.424 116.982 21.072 116.166 21.936C115.374 22.776 114.726 23.82 114.222 25.068C113.742 26.292 113.502 27.708 113.502 29.316V29.388C113.502 30.996 113.742 32.424 114.222 33.672C114.726 34.896 115.386 35.94 116.202 36.804C117.018 37.644 117.954 38.28 119.01 38.712C120.066 39.144 121.158 39.36 122.286 39.36C123.726 39.36 124.914 39.072 125.85 38.496C126.81 37.896 127.626 37.14 128.298 36.228V39H133.77ZM128.37 29.388C128.37 30.18 128.238 30.912 127.974 31.584C127.734 32.232 127.398 32.796 126.966 33.276C126.558 33.732 126.066 34.092 125.49 34.356C124.938 34.596 124.338 34.716 123.69 34.716C123.042 34.716 122.43 34.596 121.854 34.356C121.302 34.092 120.81 33.732 120.378 33.276C119.946 32.796 119.598 32.232 119.334 31.584C119.094 30.912 118.974 30.18 118.974 29.388V29.316C118.974 28.5 119.094 27.768 119.334 27.12C119.598 26.472 119.946 25.92 120.378 25.464C120.81 24.984 121.302 24.624 121.854 24.384C122.43 24.12 123.042 23.988 123.69 23.988C124.338 23.988 124.938 24.12 125.49 24.384C126.066 24.624 126.558 24.984 126.966 25.464C127.398 25.92 127.734 26.484 127.974 27.156C128.238 27.804 128.37 28.524 128.37 29.316V29.388Z" fill="#181441"/>
<path d="M144.527 17.58V12.72H138.767V17.58H144.527ZM144.383 39V19.704H138.911V39H144.383ZM160.358 38.208V33.816C159.518 34.272 158.618 34.5 157.658 34.5C156.482 34.5 155.894 33.876 155.894 32.628V24.384H160.43V19.704H155.894V14.772H150.422V19.704H148.118V24.384H150.422V33.528C150.422 34.656 150.554 35.592 150.818 36.336C151.106 37.056 151.49 37.644 151.97 38.1C152.474 38.556 153.062 38.868 153.734 39.036C154.43 39.228 155.198 39.324 156.038 39.324C156.95 39.324 157.754 39.216 158.45 39C159.146 38.808 159.782 38.544 160.358 38.208Z" fill="#FB6D3A"/>
<path d="M32.868 17.192C35.172 17.192 37.342 18.09 38.974 19.72C40.604 21.352 41.506 23.52 41.506 25.832C41.506 28.144 40.606 30.31 38.97 31.944C37.344 33.574 35.174 34.476 32.864 34.476C30.554 34.476 28.388 33.578 26.754 31.944L24.002 29.304L21.212 31.98C20.4146 32.776 19.4676 33.4064 18.4255 33.8348C17.3833 34.2632 16.2667 34.4811 15.14 34.476C14.0048 34.4797 12.8801 34.2575 11.8315 33.8225C10.7829 33.3875 9.83129 32.7482 9.03203 31.942C7.40203 30.316 6.50203 28.144 6.50203 25.836C6.50203 23.528 7.40203 21.362 9.03603 19.724C9.83616 18.9196 10.7877 18.2818 11.8357 17.8472C12.8837 17.4126 14.0075 17.1899 15.142 17.192C17.45 17.192 19.62 18.09 21.252 19.724L24.002 22.364L26.794 19.684C27.5926 18.8893 28.5402 18.26 29.5826 17.8324C30.6249 17.4047 31.7414 17.1871 32.868 17.192ZM32.868 13.192C29.51 13.192 26.368 14.482 24.002 16.818C22.8358 15.6613 21.453 14.7457 19.9328 14.1235C18.4125 13.5014 16.7846 13.1848 15.142 13.192C13.4816 13.1871 11.8368 13.5122 10.3031 14.1484C8.76939 14.7846 7.37741 15.7192 6.20803 16.898C3.82003 19.282 2.50403 22.458 2.50403 25.836C2.50403 29.214 3.82003 32.384 6.20803 34.772C7.37862 35.9496 8.77115 36.8833 10.305 37.5191C11.8389 38.1549 13.4836 38.4801 15.144 38.476C16.7871 38.4834 18.4156 38.1668 19.9362 37.5443C21.4568 36.9217 22.8398 36.0055 24.006 34.848C25.1722 36.0056 26.5551 36.9219 28.0758 37.5444C29.5964 38.167 31.2249 38.4835 32.868 38.476C34.5292 38.4808 36.1747 38.1554 37.7091 37.5189C39.2435 36.8823 40.6361 35.9473 41.806 34.768C42.9847 33.5987 43.9192 32.2066 44.555 30.6729C45.1909 29.1392 45.5155 27.4943 45.51 25.834C45.5139 24.173 45.1886 22.5278 44.5528 20.9933C43.917 19.4588 42.9835 18.0655 41.806 16.894C40.6347 15.717 39.2417 14.7838 37.7076 14.1484C36.1734 13.513 34.5286 13.1879 32.868 13.192ZM15.142 24.192C15.592 24.192 15.994 24.368 16.366 24.734L17.506 25.83L16.3 26.988C15.9885 27.2832 15.5731 27.4435 15.144 27.434C14.7136 27.4444 14.2966 27.284 13.984 26.988C13.8315 26.8367 13.7106 26.6565 13.6282 26.4581C13.5458 26.2597 13.5036 26.0469 13.504 25.832C13.504 25.39 13.672 24.988 13.99 24.67C14.1405 24.5175 14.3199 24.3967 14.5177 24.3146C14.7156 24.2325 14.9278 24.1908 15.142 24.192ZM15.142 22.192C14.17 22.192 13.258 22.57 12.572 23.258C12.2323 23.595 11.9628 23.996 11.7792 24.4378C11.5955 24.8797 11.5013 25.3535 11.502 25.832C11.502 26.8 11.88 27.714 12.568 28.402C13.256 29.09 14.198 29.434 15.142 29.434C16.1016 29.4443 17.026 29.0731 17.712 28.402L20.39 25.832L17.748 23.292C17.4091 22.9439 17.0039 22.6673 16.5563 22.4784C16.1087 22.2894 15.6278 22.1921 15.142 22.192ZM32.868 24.226C33.2947 24.2145 33.7087 24.3719 34.02 24.664C34.336 24.982 34.504 25.382 34.504 25.828C34.504 26.274 34.338 26.672 34.018 26.99C33.867 27.1374 33.6884 27.2535 33.4925 27.3318C33.2965 27.41 33.087 27.4489 32.876 27.446C32.6458 27.4462 32.418 27.4001 32.206 27.3104C31.994 27.2208 31.8022 27.0893 31.642 26.924L30.5 25.828L31.706 24.672C32.019 24.3753 32.4369 24.2149 32.868 24.226ZM32.868 22.226C31.924 22.226 30.982 22.57 30.294 23.258L27.614 25.828L30.258 28.368C30.6027 28.7112 31.0118 28.9831 31.4617 29.1681C31.9116 29.3531 32.3936 29.4475 32.88 29.446C33.3565 29.45 33.8289 29.3593 34.27 29.1791C34.7111 28.9989 35.112 28.7328 35.4493 28.3964C35.7867 28.06 36.0538 27.6598 36.2352 27.2193C36.4166 26.7787 36.5087 26.3065 36.506 25.83C36.5074 25.352 36.4141 24.8784 36.2315 24.4366C36.0489 23.9948 35.7806 23.5936 35.442 23.256C34.7534 22.5868 33.8283 22.2166 32.868 22.226Z" fill="#FB6D3A"/>
</svg>
